<svg height="433pt" viewBox="-43 0 433 433.13835" width="433pt" xmlns="http://www.w3.org/2000/svg"><path d="m269.429688 126.757812c-3.773438 0-6.828126-3.054687-6.828126-6.824218v-17.859375c0-1.34375.398438-2.664063 1.148438-3.785157l16.285156-24.429687c3.6875-5.53125 5.554688-12.621094 5.554688-21.070313v-22.152343c0-9.683594-6.945313-16.984375-16.160156-16.984375-9.574219 0-17.972657 7.9375-17.972657 16.984375v35.71875c.039063 1.425781.84375 39.46875-19.914062 53.304687-3.152344 2.085938-7.378907 1.238282-9.46875-1.894531-2.09375-3.136719-1.238281-7.375 1.894531-9.464844 12.074219-8.046875 14.078125-32.871093 13.832031-41.753906v-35.910156c0-16.605469 14.480469-30.636719 31.625-30.636719 16.722657 0 29.816407 13.457031 29.816407 30.636719v22.152343c0 11.195313-2.640626 20.828126-7.847657 28.644532l-15.140625 22.707031v15.792969c0 3.769531-3.050781 6.824218-6.824218 6.824218zm0 0"/><path d="m269.121094 158.492188c-11.003906 0-19.957032-8.953126-19.957032-19.957032 0-11.007812 8.953126-19.960937 19.957032-19.960937 11.007812 0 19.960937 8.953125 19.960937 19.957031 0 11.007812-8.953125 19.960938-19.960937 19.960938zm0-26.265626c-3.480469 0-6.304688 2.828126-6.304688 6.304688s2.824219 6.308594 6.304688 6.308594c3.480468 0 6.308594-2.832032 6.308594-6.308594s-2.828126-6.304688-6.308594-6.304688zm0 0"/><path d="m269.121094 206.207031c-15.585938 0-28.273438-12.683593-28.273438-28.273437 0-15.59375 12.6875-28.277344 28.273438-28.277344 15.585937 0 28.273437 12.683594 28.273437 28.277344 0 15.589844-12.6875 28.273437-28.273437 28.273437zm0-42.898437c-8.058594 0-14.617188 6.5625-14.617188 14.625 0 8.058594 6.558594 14.617187 14.617188 14.617187s14.621094-6.558593 14.621094-14.617187c0-8.0625-6.558594-14.625-14.621094-14.625zm0 0"/><path d="m269.121094 288.230469c-24.613282 0-44.632813-20.019531-44.632813-44.632813 0-24.613281 20.019531-44.632812 44.632813-44.632812 24.613281 0 44.632812 20.019531 44.632812 44.632812 0 24.613282-20.019531 44.632813-44.632812 44.632813zm0-75.613281c-17.078125 0-30.980469 13.898437-30.980469 30.980468 0 17.082032 13.902344 30.980469 30.980469 30.980469 17.082031 0 30.980468-13.898437 30.980468-30.980469 0-17.082031-13.898437-30.980468-30.980468-30.980468zm0 0"/><path d="m269.121094 264.75c-11.667969 0-21.152344-9.488281-21.152344-21.152344 0-11.664062 9.484375-21.152344 21.152344-21.152344 11.667968 0 21.15625 9.488282 21.15625 21.152344 0 11.664063-9.488282 21.152344-21.15625 21.152344zm0-28.652344c-4.132813 0-7.5 3.363282-7.5 7.5 0 4.136719 3.367187 7.503906 7.5 7.503906 4.132812 0 7.5-3.367187 7.5-7.503906 0-4.136718-3.367188-7.5-7.5-7.5zm0 0"/><path d="m269.121094 433.136719c-42.960938 0-77.90625-34.949219-77.90625-77.902344 0-42.960937 34.949218-77.910156 77.90625-77.910156 42.960937 0 77.90625 34.949219 77.90625 77.910156 0 42.953125-34.945313 77.902344-77.90625 77.902344zm0-142.160157c-35.425782 0-64.25 28.828126-64.25 64.257813 0 35.425781 28.824218 64.25 64.25 64.25 35.425781 0 64.253906-28.824219 64.253906-64.25 0-35.429687-28.828125-64.257813-64.253906-64.257813zm0 0"/><path d="m269.121094 399.925781c-24.644532 0-44.699219-20.050781-44.699219-44.691406 0-24.648437 20.054687-44.699219 44.699219-44.699219 24.648437 0 44.695312 20.050782 44.695312 44.699219 0 24.640625-20.046875 44.691406-44.695312 44.691406zm0-75.734375c-17.117188 0-31.046875 13.925782-31.046875 31.042969 0 17.113281 13.929687 31.039063 31.046875 31.039063 17.113281 0 31.042968-13.921876 31.042968-31.039063 0-17.121094-13.929687-31.042969-31.042968-31.042969zm0 0"/><path d="m78.28125 126.757812c-3.773438 0-6.824219-3.054687-6.824219-6.824218v-17.859375c0-1.34375.398438-2.664063 1.144531-3.785157l16.289063-24.429687c3.683594-5.53125 5.550781-12.621094 5.550781-21.070313v-22.152343c0-9.683594-6.945312-16.984375-16.160156-16.984375-9.570312 0-17.972656 7.9375-17.972656 16.984375v35.71875c.039062 1.425781.847656 39.46875-19.914063 53.304687-3.152343 2.085938-7.378906 1.238282-9.464843-1.894531-2.09375-3.136719-1.242188-7.375 1.890624-9.464844 12.074219-8.046875 14.082032-32.871093 13.835938-41.753906v-35.910156c0-16.605469 14.476562-30.636719 31.625-30.636719 16.71875 0 29.8125 13.457031 29.8125 30.636719v22.152343c0 11.195313-2.640625 20.828126-7.847656 28.644532l-15.136719 22.707031v15.792969c0 3.769531-3.054687 6.824218-6.828125 6.824218zm0 0"/><path d="m77.976562 158.492188c-11.007812 0-19.960937-8.953126-19.960937-19.957032 0-11.007812 8.953125-19.960937 19.960937-19.960937 11.003907 0 19.957032 8.953125 19.957032 19.957031 0 11.007812-8.953125 19.960938-19.957032 19.960938zm0-26.265626c-3.480468 0-6.308593 2.828126-6.308593 6.304688s2.828125 6.308594 6.308593 6.308594c3.476563 0 6.304688-2.832032 6.304688-6.308594s-2.828125-6.304688-6.304688-6.304688zm0 0"/><path d="m77.976562 206.207031c-15.589843 0-28.273437-12.683593-28.273437-28.273437 0-15.59375 12.6875-28.277344 28.273437-28.277344 15.582032 0 28.269532 12.683594 28.269532 28.277344 0 15.589844-12.683594 28.273437-28.269532 28.273437zm0-42.898437c-8.0625 0-14.621093 6.5625-14.621093 14.625 0 8.058594 6.5625 14.617187 14.621093 14.617187 8.058594 0 14.617188-6.558593 14.617188-14.617187 0-8.0625-6.558594-14.625-14.617188-14.625zm0 0"/><path d="m77.976562 288.230469c-24.613281 0-44.632812-20.019531-44.632812-44.632813 0-24.613281 20.019531-44.632812 44.632812-44.632812 24.613282 0 44.632813 20.019531 44.632813 44.632812 0 24.613282-20.019531 44.632813-44.632813 44.632813zm0-75.613281c-17.082031 0-30.980468 13.898437-30.980468 30.980468 0 17.082032 13.898437 30.980469 30.980468 30.980469 17.078126 0 30.976563-13.898437 30.976563-30.980469 0-17.082031-13.898437-30.980468-30.976563-30.980468zm0 0"/><path d="m77.976562 264.75c-11.667968 0-21.15625-9.488281-21.15625-21.152344 0-11.664062 9.488282-21.152344 21.15625-21.152344 11.664063 0 21.152344 9.492188 21.152344 21.152344 0 11.664063-9.488281 21.152344-21.152344 21.152344zm0-28.652344c-4.136718 0-7.503906 3.363282-7.503906 7.5 0 4.136719 3.367188 7.503906 7.503906 7.503906 4.132813 0 7.5-3.367187 7.5-7.503906 0-4.136718-3.367187-7.5-7.5-7.5zm0 0"/><path d="m77.976562 433.136719c-42.960937 0-77.9062495-34.949219-77.9062495-77.902344 0-42.960937 34.9453125-77.910156 77.9062495-77.910156 42.957032 0 77.90625 34.949219 77.90625 77.910156 0 42.953125-34.949218 77.902344-77.90625 77.902344zm0-142.160157c-35.429687 0-64.253906 28.828126-64.253906 64.257813 0 35.425781 28.824219 64.25 64.253906 64.25 35.425782 0 64.25-28.824219 64.25-64.25 0-35.429687-28.824218-64.257813-64.25-64.257813zm0 0"/><path d="m77.976562 399.925781c-24.648437 0-44.699218-20.050781-44.699218-44.691406 0-24.648437 20.050781-44.699219 44.699218-44.699219 24.644532 0 44.691407 20.050782 44.691407 44.699219 0 24.640625-20.046875 44.691406-44.691407 44.691406zm0-75.734375c-17.121093 0-31.046874 13.925782-31.046874 31.042969 0 17.113281 13.925781 31.039063 31.046874 31.039063 17.109376 0 31.039063-13.921876 31.039063-31.039063 0-17.121094-13.929687-31.042969-31.039063-31.042969zm0 0"/></svg>