<svg height="512pt" viewBox="-60 0 512 512.00005" width="512pt" xmlns="http://www.w3.org/2000/svg"><path d="m72.378906 69.488281-42.664062 25.597657c-2.675782 1.542968-4.304688 4.40625-4.269532 7.492187.035157 3.085937 1.730469 5.910156 4.441407 7.390625 2.707031 1.476562 6 1.382812 8.617187-.253906l42.664063-25.601563c3.945312-2.46875 5.1875-7.640625 2.789062-11.628906-2.394531-3.988281-7.546875-5.320313-11.578125-2.996094zm0 0"/><path d="m25.574219 51.199219h51.199219c4.714843 0 8.535156-3.820313 8.535156-8.53125 0-4.714844-3.820313-8.535157-8.535156-8.535157h-51.199219c-4.710938 0-8.53125 3.820313-8.53125 8.535157 0 4.710937 3.820312 8.53125 8.53125 8.53125zm0 0"/><path d="m320.101562 69.488281c-4.027343-2.324219-9.179687-.992187-11.574218 2.996094-2.398438 3.988281-1.15625 9.160156 2.785156 11.628906l42.667969 25.601563c2.617187 1.636718 5.910156 1.730468 8.617187.253906 2.707032-1.480469 4.40625-4.304688 4.441406-7.390625.035157-3.085937-1.597656-5.949219-4.269531-7.492187zm0 0"/><path d="m315.707031 51.199219h51.203125c4.710938 0 8.53125-3.820313 8.53125-8.53125 0-4.714844-3.820312-8.535157-8.53125-8.535157h-51.203125c-4.710937 0-8.53125 3.820313-8.53125 8.535157 0 4.710937 3.820313 8.53125 8.53125 8.53125zm0 0"/><path d="m196.242188 512c101.578124-.117188 186.28125-77.714844 195.273437-178.894531 8.988281-101.179688-60.707031-192.5-160.671875-210.523438l57.488281-74.710937c.183594-.300782.339844-.617188.472657-.945313.300781-.476562.550781-.984375.75-1.511719.175781-.554687.292968-1.125.347656-1.707031.09375-.339843.160156-.6875.207031-1.039062-.027344-.164063-.0625-.328125-.101563-.488281-.054687-.597657-.171874-1.1875-.351562-1.757813-.109375-.492187-.265625-.976563-.460938-1.441406-.246093-.457031-.53125-.890625-.851562-1.296875-.328125-.476563-.699219-.921875-1.109375-1.324219-.121094-.109375-.179687-.253906-.300781-.355469l-42.667969-34.136718c-1.519531-1.214844-3.410156-1.8750005-5.355469-1.867188h-85.335937c-1.9375 0-3.820313.660156-5.332031 1.867188l-42.667969 34.136718c-.117188.101563-.179688.246094-.296875.355469-.414063.402344-.785156.847656-1.109375 1.324219-.324219.40625-.609375.839844-.855469 1.296875-.195312.464843-.351562.949219-.460938 1.441406-.179687.570313-.296874 1.160156-.347656 1.757813-.050781.160156-.09375.324218-.128906.488281.046875.339843.117188.675781.203125 1.003906.058594.582031.175781 1.152344.351563 1.707031.195312.53125.449218 1.035156.75 1.511719.132812.328125.289062.644531.46875.949219l57.492187 74.707031c-100.054687 17.941406-169.855469 109.304687-160.859375 210.554687 8.996094 101.253907 93.808594 178.878907 195.460938 178.898438zm0-392.535156c-.53125 0-1.050782 0-1.585938.042968l-20.992188-68.308593h45.15625l-20.992187 68.308593c-.535156-.042968-1.058594-.042968-1.585937-.042968zm40.4375-68.265625h27.5625l-45.890626 59.640625zm-53.972657-17.066407 13.535157-13.535156 13.535156 13.535156zm-26.90625 17.066407 18.332031 59.640625-45.894531-59.640625zm101.445313-17.066407h-23.339844l-17.066406-17.066406h19.074218zm-100.691406-17.066406h19.070312l-17.066406 17.066406h-23.320313zm39.6875 119.46875c98.96875 0 179.199218 80.230469 179.199218 179.199219s-80.230468 179.199219-179.199218 179.199219-179.199219-80.230469-179.199219-179.199219c.105469-98.925781 80.273437-179.09375 179.199219-179.199219zm0 0"/><path d="m196.242188 477.867188c89.542968 0 162.132812-72.589844 162.132812-162.132813s-72.589844-162.132813-162.132812-162.132813c-89.542969 0-162.132813 72.589844-162.132813 162.132813.097656 89.5 72.628906 162.035156 162.132813 162.132813zm0-307.199219c80.117187 0 145.066406 64.949219 145.066406 145.066406s-64.949219 145.066406-145.066406 145.066406c-80.117188 0-145.066407-64.949219-145.066407-145.066406.089844-80.082031 64.984375-144.976563 145.066407-145.066406zm0 0"/></svg>