<svg height="503pt" viewBox="-4 0 503 503.888" width="503pt" xmlns="http://www.w3.org/2000/svg"><g fill="#edab37"><path d="m120.410156 47.824219c-4.421875 0-8-3.585938-8-8v-31.824219c0-4.425781 3.578125-8 8-8 4.425782 0 8 3.574219 8 8v31.832031c0 4.40625-3.574218 7.992188-8 7.992188zm0 0"/><path d="m216.378906 319.863281c-4.421875 0-8-3.574219-8-8v-129.199219c0-4.417968 3.578125-8 8-8 4.425782 0 8 3.582032 8 8v129.199219c0 4.425781-3.574218 8-8 8zm0 0"/><path d="m120.378906 487.878906c-4.421875 0-8-3.574218-8-8v-200.015625c0-4.421875 3.578125-8 8-8 4.425782 0 8 3.578125 8 8v200.015625c0 4.425782-3.574218 8-8 8zm0 0"/><path d="m168.378906 399.816406c-4.421875 0-8-3.578125-8-8v-124.800781c0-4.421875 3.578125-8 8-8 4.425782 0 8 3.578125 8 8v124.800781c0 4.421875-3.574218 8-8 8zm0 0"/><path d="m24.378906 319.863281c-4.421875 0-8-3.574219-8-8v-129.199219c0-4.417968 3.578125-8 8-8 4.425782 0 8 3.582032 8 8v129.199219c0 4.425781-3.574218 8-8 8zm0 0"/><path d="m72.378906 399.816406c-4.421875 0-8-3.578125-8-8v-124.800781c0-4.421875 3.578125-8 8-8 4.425782 0 8 3.578125 8 8v124.800781c0 4.421875-3.574218 8-8 8zm0 0"/></g><path d="m144.429688 191.886719c0 13.191406-10.722657 24-24 24-13.203126 0-24-10.808594-24-24 0-13.277344 24-32 24-32s24 18.722656 24 32zm0 0" fill="#ed5565"/><path d="m24.429688 182.6875c8.328124-1.191406 16.40625-3.273438 24-6.238281v7.359375c0 39.765625 32.246093 72.085937 72 72.085937 39.765624 0 72-32.320312 72-72.085937v-7.359375c7.605468 2.878906 15.6875 5.046875 24 6.238281v3.601562c-.800782 34.558594-19.921876 64.558594-48 80.71875-14.160157 8.238282-30.5625 12.878907-48 12.878907-17.441407 0-33.839844-4.640625-48-12.878907-28.640626-16.558593-48-47.59375-48-83.199218zm0 0" fill="#f6bb42"/><path d="m40.429688 319.886719c0 8.800781-7.113282 16-16 16-8.800782 0-16-7.199219-16-16 0-8.878907 16-24 16-24s16 15.121093 16 24zm0 0" fill="#ed5565"/><path d="m88.429688 399.800781c0 8.878907-7.203126 16-16 16-8.875 0-16-7.121093-16-16 0-8.800781 16-24 16-24s16 15.207031 16 24zm0 0" fill="#ed5565"/><path d="m232.429688 319.886719c0 8.800781-7.203126 16-16 16-8.875 0-16-7.199219-16-16 0-8.878907 16-24 16-24s16 15.121093 16 24zm0 0" fill="#ed5565"/><path d="m184.429688 399.800781c0 8.878907-7.113282 16-16 16-8.800782 0-16-7.121093-16-16 0-8.800781 16-24 16-24s16 15.207031 16 24zm0 0" fill="#ed5565"/><path d="m136.429688 487.886719c0 8.800781-7.113282 16-16 16-8.800782 0-16-7.199219-16-16 0-8.878907 16-24 16-24s16 15.121093 16 24zm0 0" fill="#ed5565"/><path d="m240.347656 183.703125c-.046875-35.222656-28.71875-63.863281-63.953125-63.863281h-36.140625c-7.515625-14.367188-11.832031-30.664063-11.832031-47.96875 0-4.421875-3.578125-8-8-8-1.113281 0-2.160156.226562-3.113281.625-2.886719 1.207031-4.921875 4.054687-4.921875 7.382812 0 17.296875-4.292969 33.578125-11.816407 47.945313h-36.160156c-35.261718 0-63.964844 28.6875-63.964844 63.96875v.007812.007813c0 4.421875 3.574219 8 8 8 44.160157 0 82.71875-24.046875 103.527344-59.671875.3125-.464844.640625-.871094.855469-1.402344 2.917969-5.167969 5.425781-10.582031 7.574219-16.175781 17.25 45.097656 60.859375 77.25 111.9375 77.25 4.425781 0 8-3.585938 8-8 .023437-.039063.007812-.066406.007812-.105469zm0 0" fill="#ffce54"/><path d="m120.410156 79.871094c-13.246094 0-24.03125-10.773438-24.03125-24.015625 0-13.246094 10.785156-24.03125 24.03125-24.03125 13.25 0 24.019532 10.785156 24.019532 24.03125 0 13.25-10.769532 24.015625-24.019532 24.015625zm0-32.046875c-4.421875 0-8.03125 3.601562-8.03125 8.03125 0 4.417969 3.609375 8.015625 8.03125 8.015625 4.425782 0 8.019532-3.597656 8.019532-8.015625 0-4.421875-3.59375-8.03125-8.019532-8.03125zm0 0" fill="#f6bb42"/><path d="m136.429688 16h-32.050782c-4.421875 0-8-3.585938-8-8 0-4.425781 3.578125-8 8-8h32.050782c4.421874 0 8 3.574219 8 8 0 4.414062-3.578126 8-8 8zm0 0" fill="#f6bb42"/><path d="m376.410156 47.824219c-4.421875 0-8-3.585938-8-8v-31.824219c0-4.425781 3.578125-8 8-8 4.425782 0 8 3.574219 8 8v31.832031c0 4.40625-3.574218 7.992188-8 7.992188zm0 0" fill="#edab37"/><path d="m472.378906 319.863281c-4.421875 0-8-3.574219-8-8v-129.199219c0-4.417968 3.578125-8 8-8 4.425782 0 8 3.582032 8 8v129.199219c0 4.425781-3.574218 8-8 8zm0 0" fill="#edab37"/><path d="m376.378906 487.878906c-4.421875 0-8-3.574218-8-8v-200.015625c0-4.421875 3.578125-8 8-8 4.425782 0 8 3.578125 8 8v200.015625c0 4.425782-3.574218 8-8 8zm0 0" fill="#edab37"/><path d="m424.378906 399.816406c-4.421875 0-8-3.578125-8-8v-124.800781c0-4.421875 3.578125-8 8-8 4.425782 0 8 3.578125 8 8v124.800781c0 4.421875-3.574218 8-8 8zm0 0" fill="#edab37"/><path d="m280.378906 319.863281c-4.421875 0-8-3.574219-8-8v-129.199219c0-4.417968 3.578125-8 8-8 4.425782 0 8 3.582032 8 8v129.199219c0 4.425781-3.574218 8-8 8zm0 0" fill="#edab37"/><path d="m328.378906 399.816406c-4.421875 0-8-3.578125-8-8v-124.800781c0-4.421875 3.578125-8 8-8 4.425782 0 8 3.578125 8 8v124.800781c0 4.421875-3.574218 8-8 8zm0 0" fill="#edab37"/><path d="m400.429688 191.886719c0 13.191406-10.722657 24-24 24-13.203126 0-24-10.808594-24-24 0-13.277344 24-32 24-32s24 18.722656 24 32zm0 0" fill="#ed5565"/><path d="m280.429688 182.6875c8.308593-1.191406 16.390624-3.273438 24-6.238281v7.359375c0 39.765625 32.230468 72.085937 72 72.085937 39.75 0 72-32.320312 72-72.085937v-7.359375c7.589843 2.878906 15.671874 5.046875 24 6.238281v3.601562c-.800782 34.558594-19.921876 64.558594-48 80.71875-14.160157 8.238282-30.5625 12.878907-48 12.878907-17.441407 0-33.839844-4.640625-48-12.878907-28.640626-16.558593-48-47.59375-48-83.199218zm0 0" fill="#f6bb42"/><path d="m296.429688 319.886719c0 8.800781-7.128907 16-16 16-8.800782 0-16-7.199219-16-16 0-8.878907 16-24 16-24s16 15.121093 16 24zm0 0" fill="#ed5565"/><path d="m344.429688 399.800781c0 8.878907-7.203126 16-16 16-8.890626 0-16-7.121093-16-16 0-8.800781 16-24 16-24s16 15.207031 16 24zm0 0" fill="#ed5565"/><path d="m488.429688 319.886719c0 8.800781-7.203126 16-16 16-8.890626 0-16-7.199219-16-16 0-8.878907 16-24 16-24s16 15.121093 16 24zm0 0" fill="#ed5565"/><path d="m440.429688 399.800781c0 8.878907-7.128907 16-16 16-8.800782 0-16-7.121093-16-16 0-8.800781 16-24 16-24s16 15.207031 16 24zm0 0" fill="#ed5565"/><path d="m392.429688 487.886719c0 8.800781-7.128907 16-16 16-8.800782 0-16-7.199219-16-16 0-8.878907 16-24 16-24s16 15.121093 16 24zm0 0" fill="#ed5565"/><path d="m496.332031 183.703125c-.03125-35.222656-28.703125-63.863281-63.9375-63.863281h-36.160156c-7.503906-14.367188-11.8125-30.664063-11.8125-47.96875 0-4.421875-3.578125-8-8-8-1.113281 0-2.167969.226562-3.128906.625-2.890625 1.207031-4.90625 4.054687-4.90625 7.382812 0 17.296875-4.3125 33.578125-11.816407 47.945313h-36.160156c-35.277344 0-63.964844 28.6875-63.964844 63.96875v.007812.007813c0 4.421875 3.574219 8 8 8 44.160157 0 82.703126-24.046875 103.527344-59.671875.296875-.464844.640625-.871094.839844-1.402344 2.917969-5.167969 5.441406-10.582031 7.574219-16.175781 17.265625 45.097656 60.875 77.25 111.953125 77.25 4.425781 0 8-3.585938 8-8 .023437-.039063.007812-.066406-.007813-.105469zm0 0" fill="#ffce54"/><path d="m376.410156 79.871094c-13.246094 0-24.03125-10.773438-24.03125-24.015625 0-13.246094 10.785156-24.03125 24.03125-24.03125 13.234375 0 24.019532 10.785156 24.019532 24.03125 0 13.25-10.785157 24.015625-24.019532 24.015625zm0-32.046875c-4.4375 0-8.03125 3.601562-8.03125 8.03125 0 4.417969 3.59375 8.015625 8.03125 8.015625 4.425782 0 8.019532-3.597656 8.019532-8.015625 0-4.421875-3.59375-8.03125-8.019532-8.03125zm0 0" fill="#f6bb42"/><path d="m392.429688 16h-32.050782c-4.421875 0-8-3.585938-8-8 0-4.425781 3.578125-8 8-8h32.050782c4.421874 0 8 3.574219 8 8 0 4.414062-3.578126 8-8 8zm0 0" fill="#f6bb42"/></svg>