<svg height="496pt" viewBox="0 -8 496 496" width="496pt" xmlns="http://www.w3.org/2000/svg"><path d="m248 280.007812c-4.425781 0-8-3.574218-8-8v-39.992187c0-4.421875 3.574219-8 8-8s8 3.578125 8 8v39.992187c0 4.425782-3.574219 8-8 8zm0 0" fill="#edab37"/><path d="m54 112-20.800781 12c-10.726563-18.558594-19.199219-38.640625-24.808594-59.839844h.082031l23.128906-6.238281c5.117188 19.199219 12.71875 37.277344 22.398438 54.078125zm0 0" fill="#ffce54"/><path d="m54 112c9.839844 17.039062 21.839844 32.558594 35.601562 46.398438l-16.960937 16.960937c-15.28125-15.28125-28.5625-32.558594-39.441406-51.359375zm0 0" fill="#f6bb42"/><path d="m136 194-12 20.71875v.082031c-18.800781-10.871093-36.078125-24.160156-51.359375-39.441406l16.960937-16.960937c13.839844 13.761718 29.359376 25.761718 46.398438 35.601562zm0 0" fill="#ffce54"/><path d="m190 216.398438-6.160156 23.128906v.082031c-21.199219-5.601563-41.28125-14.082031-59.839844-24.808594v-.082031l12-20.71875c16.71875 9.679688 34.878906 17.28125 54 22.398438zm0 0" fill="#f6bb42"/><path d="m190 216.398438c18.480469 4.960937 37.921875 7.601562 58 7.601562v24c-22.160156 0-43.679688-2.878906-64.160156-8.398438v-.082031zm0 0" fill="#ffce54"/><path d="m487.519531 64.160156h.082031c-5.601562 21.199219-14.082031 41.28125-24.808593 59.839844l-20.800781-12c9.679687-16.71875 17.28125-34.878906 22.398437-54zm0 0" fill="#f6bb42"/><path d="m442 112 20.800781 12c-10.871093 18.800781-24.160156 36.078125-39.441406 51.359375l-16.960937-16.960937c13.761718-13.839844 25.761718-29.359376 35.601562-46.398438zm0 0" fill="#ffce54"/><path d="m406.398438 158.398438 16.960937 16.960937c-15.28125 15.28125-32.558594 28.5625-51.359375 39.441406v-.082031l-12-20.71875c17.039062-9.839844 32.558594-21.839844 46.398438-35.601562zm0 0" fill="#f6bb42"/><path d="m372 214.71875v.082031c-18.558594 10.726563-38.640625 19.199219-59.839844 24.808594v-.082031l-6.160156-23.128906c19.121094-5.117188 37.28125-12.71875 54-22.398438zm0 0" fill="#ffce54"/><path d="m248 224c20.078125 0 39.519531-2.640625 58-7.601562l6.160156 23.128906v.082031c-20.480468 5.511719-42 8.390625-64.160156 8.390625zm0 0" fill="#f6bb42"/><path d="m24 0c0 20 2.640625 39.441406 7.601562 57.921875l-23.121093 6.238281h-.082031c-5.519532-20.480468-8.398438-42-8.398438-64.160156zm0 0" fill="#f6bb42"/><path d="m496 0c0 22.160156-2.878906 43.679688-8.398438 64.160156h-.082031l-23.121093-6.160156c4.960937-18.480469 7.601562-37.921875 7.601562-58zm0 0" fill="#ffce54"/><path d="m174.320312 449.519531c-40.558593-40.640625-40.558593-106.488281 0-147.128906 20.398438-20.320313 47.039063-30.480469 73.679688-30.398437 26.558594.078124 53.199219 10.160156 73.441406 30.398437 40.558594 40.640625 40.558594 106.488281 0 147.128906-40.640625 40.640625-106.480468 40.640625-147.121094 0zm41.519532-146.800781c-19.367188 8.402344-34.726563 24.320312-42.488282 44.082031-3.589843 9.039063-5.511718 18.878907-5.511718 29.199219 0 11.359375 2.398437 22.238281 6.71875 32 8.480468 19.441406 24.480468 34.878906 44.320312 42.558594 8.960938 3.519531 18.722656 5.441406 28.960938 5.441406 11.359375 0 22.230468-2.398438 32-6.71875 19.441406-8.402344 34.800781-24.320312 42.480468-44.082031 3.601563-9.046875 5.519532-18.878907 5.519532-29.199219 0-11.441406-2.40625-22.238281-6.726563-32.078125-8.480469-19.363281-24.402343-34.722656-44.160156-42.402344-9.03125-3.597656-18.875-5.519531-29.113281-5.519531-11.359375 0-22.238282 2.398438-32 6.71875zm0 0" fill="#ffce54"/><path d="m279.839844 389.28125v60c-9.761719 4.320312-20.640625 6.71875-32 6.71875-10.238282 0-20-1.921875-28.960938-5.441406l.160156-.488282 42.082032-42.070312zm0 0" fill="#f6bb42"/><path d="m234.640625 408h26.480469l-42.082032 42.078125-.160156.488281c-19.839844-7.679687-35.839844-23.125-44.320312-42.558594h60.082031zm0 0" fill="#edab37"/><path d="m234.640625 408h-60.082031c-4.320313-9.761719-6.71875-20.640625-6.71875-32 0-10.320312 1.914062-20.160156 5.511718-29.199219l.167969.085938 42.320313 42.320312v.082031zm0 0" fill="#f6bb42"/><path d="m173.359375 346.800781c7.761719-19.761719 23.121094-35.679687 42.488281-44.082031v86.488281l-42.320312-42.320312zm0 0" fill="#edab37"/><path d="m215.839844 362.71875v-60c9.761718-4.320312 20.632812-6.71875 32-6.71875 10.230468 0 20.082031 1.921875 29.121094 5.519531v.082031l-42.320313 42.398438zm0 0" fill="#f6bb42"/><path d="m261.121094 344h-26.480469l42.320313-42.398438v-.082031c19.757812 7.679688 35.679687 23.039063 44.160156 42.402344l-.160156.078125zm0 0" fill="#edab37"/><path d="m327.839844 376c0 10.320312-1.917969 20.160156-5.519532 29.199219l-42.480468-42.488281-18.71875-18.710938h59.839844l.160156-.078125c4.320312 9.839844 6.71875 20.636719 6.71875 32.078125zm0 0" fill="#f6bb42"/><path d="m279.839844 362.71875 42.480468 42.488281c-7.679687 19.761719-23.039062 35.679688-42.480468 44.082031zm0 0" fill="#edab37"/><path d="m279.839844 362.71875v26.5625l-18.71875 18.71875h-26.480469l-18.800781-18.71875v-26.5625l18.800781-18.71875h26.480469zm0 0" fill="#ed5565"/></svg>