<svg height="512pt" viewBox="-63 0 512 512" width="512pt" xmlns="http://www.w3.org/2000/svg"><path d="m182.4375 124.558594h-9.269531l-68.679688-89.25h52.96875zm0 0" fill="#90bae1"/><path d="m281.042969 35.308594-68.679688 89.25h-9.269531l24.980469-89.25zm0 0" fill="#90bae1"/><path d="m281.042969 35.308594h-52.96875l-24.980469 89.25h-20.65625l-24.980469-89.25h-52.96875l44.140625-35.308594h88.273438zm0 0" fill="#b0d3f0"/><path d="m157.457031 35.308594 35.308594-35.308594 35.308594 35.308594zm0 0" fill="#90bae1"/><g fill="#2fa8cc"><path d="m25.042969 105.929688c-3.96875.003906-7.449219-2.640626-8.511719-6.460938-1.0625-3.824219.554688-7.886719 3.957031-9.929688l44.136719-26.484374c4.167969-2.402344 9.496094-1.023438 11.976562 3.101562 2.476563 4.125 1.195313 9.476562-2.882812 12.03125l-44.140625 26.480469c-1.367187.828125-2.9375 1.261719-4.535156 1.261719zm0 0"/><path d="m69.179688 44.136719h-52.964844c-4.875 0-8.828125-3.949219-8.828125-8.828125 0-4.875 3.953125-8.824219 8.828125-8.824219h52.964844c4.875 0 8.828124 3.949219 8.828124 8.824219 0 4.878906-3.953124 8.828125-8.828124 8.828125zm0 0"/><path d="m360.488281 105.929688c-1.597656 0-3.167969-.433594-4.535156-1.261719l-44.136719-26.480469c-4.082031-2.554688-5.363281-7.90625-2.886718-12.03125 2.480468-4.125 7.808593-5.503906 11.976562-3.101562l44.140625 26.484374c3.398437 2.042969 5.015625 6.105469 3.953125 9.929688-1.0625 3.820312-4.542969 6.464844-8.511719 6.460938zm0 0"/><path d="m369.316406 44.136719h-52.964844c-4.875 0-8.828124-3.949219-8.828124-8.828125 0-4.875 3.953124-8.824219 8.828124-8.824219h52.964844c4.875 0 8.828125 3.949219 8.828125 8.824219 0 4.878906-3.953125 8.828125-8.828125 8.828125zm0 0"/></g><path d="m192.765625 123.585938c-1.5 0-3 0-4.414063.089843-104.929687 3.164063-188.351562 89.140625-188.351562 194.117188 0 104.976562 83.421875 190.953125 188.351562 194.117187 1.414063.089844 2.914063.089844 4.414063.089844 107.257813 0 194.207031-86.949219 194.207031-194.207031 0-107.257813-86.949218-194.207031-194.207031-194.207031zm0 35.3125c87.757813 0 158.898437 71.136718 158.898437 158.894531 0 87.757812-71.140624 158.898437-158.898437 158.898437-1.5 0-3 0-4.414063-.089844-85.648437-2.855468-153.601562-73.113281-153.601562-158.808593 0-85.695313 67.953125-155.953125 153.601562-158.808594 1.414063-.085937 2.914063-.085937 4.414063-.085937zm0 0" fill="#f29c1f"/><path d="m188.351562 123.675781c-104.929687 3.164063-188.351562 89.140625-188.351562 194.117188 0 104.976562 83.421875 190.953125 188.351562 194.117187 104.929688-3.164062 188.351563-89.140625 188.351563-194.117187 0-104.976563-83.421875-190.953125-188.351563-194.117188zm4.414063 353.015625c-1.5 0-3 0-4.414063-.089844-1.410156.089844-2.914062.089844-4.414062.089844-87.753906 0-158.894531-71.140625-158.894531-158.898437 0-87.757813 71.140625-158.894531 158.894531-158.894531 1.5 0 3.003906 0 4.414062.085937 1.414063-.085937 2.914063-.085937 4.414063-.085937 87.757813 0 158.898437 71.136718 158.898437 158.894531 0 87.757812-71.140624 158.898437-158.898437 158.898437zm0 0" fill="#f0c419"/></svg>